<svg id="epHNzk2GiZu1" xmlns="http://www.w3.org/2000/svg" xmlns:xlink="http://www.w3.org/1999/xlink" viewBox="0 0 200 300" shape-rendering="geometricPrecision" text-rendering="geometricPrecision"><path d="M101.95169,72.99142C68.82457,78.51261,85.50688,42.153507,64.66828,23.630317c-3.44892-3.0657-35.205732-9.417889-39.383842-3.150709C23.371728,23.348678,38.41238,52.8513,38.41238,56.18763c0,34.41616-19.037184,3.828749-21.004714,29.406629-.75583,9.82585,48.706214,36.203581,44.635034,45.160161-11.17651,24.58831-33.908809,1.391774-36.758262,28.881498-.834022,8.046118-49.667818,27.722909,13.127942,85.069132c4.274154,3.903235,11.397518,39.908819,15.228438,36.758279c26.241386-21.580857,66.700803,54.983794,31.507072-134.955369-1.214102-6.552461.13044-30.21847,11.02748-26.25591c10.23555,3.72202,17.19005,22.57576,23.63032,26.25591c3.42201,1.95543-1.13266,42.966653,0,51.461583c1.78757,13.4068,31.00266,4.389374,35.70805,13.127954c6.26903,11.64249-4.71259,49.073153,6.82652,44.635033c9.54171-3.66989,28.127245-24.66905,31.507105-34.13267c17.65526-49.43473-45.161745-54.62953-47.785775-83.4938-1.73555-19.09108,39.681335-31.791935,47.785775-45.685265c7.06656-12.1141-14.001875-22.242945-12.602855-36.233165c2.0098-20.09797-24.072832-41.063433-39.383842-32.557313-16.41347,9.11859-36.135248,35.561133-45.685298,49.886213" transform="translate(.000001 0)" fill="none" stroke="#0da080" stroke-width="0.4"/><path d="M101.95169,72.99142C68.82457,78.51261,74.537296,43.573091,53.698696,25.049901c-3.44892-3.0657-24.236148-28.136904-28.414258-21.869723C23.371728,6.049248,38.41238,52.8513,38.41238,56.18763c0,34.41616-19.037184,3.828749-21.004714,29.406629-.75583,9.82585,48.706214,36.203581,44.635034,45.160161-11.17651,24.58831-10.25956,21.031471-36.758262,28.881498-49.761588,14.741469-9.335806,115.549839,13.127942,85.069132c8.23208-11.16998-2.523155,42.294094,11.61825,39.556302c6.643902-1.286267,66.297824,64.229556,23.899671-120.633083C67.111198,133.895906,90.312686,63.542006,115.400105,98.7234c6.323389,8.867618,20.020294,95.565991,26.460564,99.246141c3.42201,1.95543,28.331846,5.080828,29.464506,13.575758c1.78757,13.4068,5.818839,34.100193,13.004429,40.946416c16.081807,15.322282,25.117607-22.828947,20.624398-33.279187-4.03812-9.3918-20.744278-11.194642-20.624399-21.242985.528469-44.296693-54.822465-33.857582-42.468934-67.215121c6.657422-17.976659,47.812903-51.377079,55.917343-65.270409c7.06656-12.1141-27.851858-38.363762-26.452838-52.353983c2.0098-20.09797-14.153496,1.994167-29.464506,10.500287-16.41347,9.11859-30.22939,35.036023-39.77944,49.361103" transform="matrix(.8 0 0 0.8 21.709325 28.733304)" fill="none" stroke="#0da080" stroke-width="0.4"/><path d="M95.978771,56.18763C71.167052,45.078019,90.112502,32.942265,64.66828,23.630317c-4.333409-1.585919-35.205732-9.417889-39.383842-3.150709-1.91271,2.86907,6.248034,32.371692,6.248034,35.708022c0,34.41616-12.157276,3.828749-14.124806,29.406629-.75583,9.82585,43.974513,36.165152,39.903333,45.121732-11.17651,24.58831-29.177108-9.993743-32.026561,17.495981-.834022,8.046118-49.667818,39.146855,13.127942,96.493078c4.274154,3.903235,11.397518,39.908819,15.228438,36.758279c26.241386-21.580857,77.531684,53.513225,42.337953-136.425938-1.214102-6.552461-5.645838-11.600651,5.251202-7.638091c10.23555,3.72202,9.79064,62.675702,16.23091,66.355852c3.42201,1.95543,23.267125,1.052673,24.399785,9.547603c1.78757,13.4068-4.70539,7.492344,0,16.230924c6.26903,11.64249,8.940482,30.636971,20.479592,26.198851c9.54171-3.66989,28.127245-24.66905,31.507105-34.13267c17.65526-49.43473-45.161745-54.62953-47.785775-83.4938-1.73555-19.09108,39.681335-31.791935,47.785775-45.685265c7.06656-12.1141-14.001875-22.242945-12.602855-36.233165c2.0098-20.09797-24.072832-41.063433-39.383842-32.557313-16.41347,9.11859-36.331846,18.232233-45.881896,32.557313" transform="matrix(1.1 0 0 1.1-9.40128-13.03317)" fill="none" stroke="#0da080" stroke-width="0.4"/><path d="M95.978771,56.18763C71.167052,45.078019,90.112502,32.942265,64.66828,23.630317c-4.333409-1.585919-35.205732-9.417889-39.383842-3.150709-1.91271,2.86907,12.809566,38.494678,12.809566,41.831008c0,34.41616-17.664534.790735-19.632064,26.368615-.75583,9.82585,42.920239,33.08018,38.849059,42.03676-11.17651,24.58831-16.367542-25.497334-19.216995,1.99239-.834022,8.046118-57.508962,43.234097,5.286798,100.58032c4.274154,3.903235,7.002694,51.915175,10.260016,48.174628c22.570645-25.919006,65.727245,92.357816,62.44864-59.863471-.143498-6.662445-15.340335-31.051672-4.443295-27.089112c10.23555,3.72202,2.850281,5.564256,9.290551,9.244406c3.42201,1.95543,10.985452-8.49493,12.118112,0c1.78757,13.4068-1.473912,16.666928,3.231478,25.405508c6.26903,11.64249,14.514846,31.00999,26.053956,26.57187c9.54171-3.66989,28.127245-24.66905,31.507105-34.13267c17.65526-49.43473-45.161745-54.62953-47.785775-83.4938-1.73555-19.09108,39.681335-23.907978,47.785775-37.801308c7.06656-12.1141-19.057455-16.607936-18.551643-30.658831.441153-12.254731-23.481422-52.38493-33.435054-46.015604-21.338454,13.65447-36.331846,28.788278-45.881896,32.557313" transform="matrix(1.3 0 0 1.3-31.110603-41.766473)" fill="none" stroke="#0da080" stroke-width="0.4"/><path d="M95.978771,56.18763C71.167052,45.078019,90.112502,32.942265,64.66828,23.630317c-4.333409-1.585919-35.205732-9.417889-39.383842-3.150709-1.91271,2.86907,12.809566,38.494678,12.809566,41.831008c0,34.41616-15.893693.989021-19.632064,26.368615-1.375602,9.338886-19.116376-14.800428,6.434619,17.430715c16.778714,21.165404,16.046898-.891289,13.197445,26.598435-.834022,8.046118-57.508962,43.234097,5.286798,100.58032c4.274154,3.903235,7.00087,51.913585,10.260016,48.174628c22.576798-25.900547,135.159963,121.792213,130.779211-33.735514" transform="matrix(1.4 0 0 1.4-41.965265-56.133125)" fill="none" stroke="#0da080" stroke-width="0.4"/><path d="M111.424768,263.011273c.309958,22.989057,13.958069-24.720837,12.045255-41.411412-1.439381-12.55956,9.277802,37.358768,38.870237,34.132669c10.162914-1.107937,28.127245-24.66905,31.507105-34.13267c17.65526-49.43473-32.725479-53.993314-35.349509-82.857584-1.73555-19.09108,28.352302-15.319063,36.456742-29.212393c7.06656-12.1141-20.164688-25.833067-19.658876-39.883962.441153-12.254731-23.481422-52.38493-33.435054-46.015604-21.338454,13.65447-36.331847,28.788279-45.881897,32.557313" transform="matrix(1.4 0 0 1.4-41.965265-56.133125)" fill="none" stroke="#0da080" stroke-width="0.4"/><path d="M81.65074,-2.80291c0,30.74663,29.63342,5.14824,36.35818-6.0597" transform="translate(0 0.000001)" fill="none" stroke="#0da080" stroke-width="0.4"/><path d="M204.05662,126.87461c-3.05429,1.0181-27.44735,30.62632,1.21194,36.35818" transform="translate(.000001 0)" fill="none" stroke="#0da080" stroke-width="0.4"/><path d="M-10.45666,280.79092c21.11142,0,35.10401,14.04287,26.66267,35.14624" fill="none" stroke="#0da080" stroke-width="0.4"/><path d="M155.57905,307.45359c-8.504,0-23.9143-26.96375-25.45073-5.45373-.28252,3.95522.38048,6.70791,1.81791,10.30149" fill="none" stroke="#0da080" stroke-width="0.4"/><path d="M-8.03278,36.58512c15.89417-6.35767,11.54431-19.25748-2.42388-24.84476" fill="none" stroke="#0da080" stroke-width="0.4"/><path d="M146.4895,62.03585c-9.10124,5.46074-39.30904,32.47468-24.23879,43.02385c8.87472,6.21231,13.41227-8.25293,16.96715-13.33133c7.00406-10.0058,19.40295-.03576,23.63282-12.72536c4.72464-14.17392-9.91744-30.3326-19.39103-14.54327" fill="none" stroke="#0da080" stroke-width="0.4"/><path d="M65.28956,68.09555c0,5.65032,1.48163,13.3524,0,18.78506-1.95288,7.16057-7.19026,8.75192-10.30149,13.9373-.73485,1.22474-1.02601,2.87666-.60597,4.24179.70403,2.28809,4.38357,4.5698,6.0597,6.0597c2.01264,1.78902,8.20888,8.26273,11.51343,6.0597c11.12051-7.41367,1.51888-47.32544-7.27164-49.08355" transform="translate(.000001 0)" fill="none" stroke="#0da080" stroke-width="0.4"/><path d="M62.25971,174.14025c-7.06753,4.71169-24.25209,25.43742-15.14924,34.54027c5.24728,5.24728,11.43915-4.2748,16.96715-1.81791c1.36883.60837,4.81738,26.86184,12.11939,20.60297c8.35015-7.15727-7.71184-45.22489-9.69552-55.14325-.20199-1.00995.35032-2.64734-.60597-3.02985-2.55617-1.02247-2.93118,4.35441-3.02985,4.84776" transform="translate(.000001 0)" fill="none" stroke="#0da080" stroke-width="0.4"/></svg>
